# xmcd
#
# Track frame offsets: 
#        150
#        22397
#        38545
#        58115
#        74459
#        95035
#        110536
#        128893
#        152028
#        170672
#        193090
#
# Disc length: 3180 seconds
#
# Revision: 0
# Processed by: cddbd v1.5.2PL0 Copyright (c) Steve Scherf et al.
# Submitted via: ExactAudioCopy v1.0b3
#
DISCID=a10c6a0b
DTITLE=Natasha Meister Band - Half Way
DYEAR=2011
DGENRE=Blues
TTITLE0=Half Way
TTITLE1=Safe in The Silence
TTITLE2=Winter Storm
TTITLE3=You're So Good For Me
TTITLE4=This Desire
TTITLE5=Burn The Water
TTITLE6=Love Went Down
TTITLE7=I Told You So
TTITLE8=Too Little Too Late
TTITLE9=Good Thang
TTITLE10=Drowning
EXTD=
EXTT0=
EXTT1=
EXTT2=
EXTT3=
EXTT4=
EXTT5=
EXTT6=
EXTT7=
EXTT8=
EXTT9=
EXTT10=
PLAYORDER=
